<mxfile host="app.diagrams.net" modified="2023-04-06T10:45:21.145Z" agent="Mozilla/5.0 (Macintosh; Intel Mac OS X 10_15_7) AppleWebKit/537.36 (KHTML, like Gecko) Chrome/110.0.0.0 Safari/537.36" etag="0LDidAtkDbaJKoyzZmH7" version="21.1.4" type="github">
  <diagram name="第 1 页" id="cTXhzEJ9n4TDVEFNR6YO">
    <mxGraphModel dx="1306" dy="798" grid="0" gridSize="10" guides="1" tooltips="1" connect="1" arrows="1" fold="1" page="1" pageScale="1" pageWidth="827" pageHeight="1169" math="0" shadow="0">
      <root>
        <mxCell id="0" />
        <mxCell id="1" parent="0" />
        <mxCell id="Xtmy36vnMTvoriy4tiQI-6" value="" style="edgeStyle=orthogonalEdgeStyle;rounded=0;orthogonalLoop=1;jettySize=auto;html=1;" parent="1" source="Xtmy36vnMTvoriy4tiQI-1" target="Xtmy36vnMTvoriy4tiQI-2" edge="1">
          <mxGeometry relative="1" as="geometry" />
        </mxCell>
        <mxCell id="Xtmy36vnMTvoriy4tiQI-1" value="首页" style="rounded=0;whiteSpace=wrap;html=1;fillColor=#e3c800;strokeColor=#B09500;fontColor=#000000;" parent="1" vertex="1">
          <mxGeometry x="310" y="339" width="119" height="40" as="geometry" />
        </mxCell>
        <mxCell id="Xtmy36vnMTvoriy4tiQI-7" value="" style="edgeStyle=orthogonalEdgeStyle;rounded=0;orthogonalLoop=1;jettySize=auto;html=1;" parent="1" source="Xtmy36vnMTvoriy4tiQI-2" target="Xtmy36vnMTvoriy4tiQI-4" edge="1">
          <mxGeometry relative="1" as="geometry" />
        </mxCell>
        <mxCell id="Xtmy36vnMTvoriy4tiQI-8" style="rounded=0;orthogonalLoop=1;jettySize=auto;html=1;exitX=0.5;exitY=1;exitDx=0;exitDy=0;entryX=0.5;entryY=0;entryDx=0;entryDy=0;" parent="1" source="Xtmy36vnMTvoriy4tiQI-2" target="Xtmy36vnMTvoriy4tiQI-3" edge="1">
          <mxGeometry relative="1" as="geometry" />
        </mxCell>
        <mxCell id="Xtmy36vnMTvoriy4tiQI-9" style="rounded=0;orthogonalLoop=1;jettySize=auto;html=1;exitX=0.5;exitY=1;exitDx=0;exitDy=0;entryX=0.5;entryY=0;entryDx=0;entryDy=0;" parent="1" source="Xtmy36vnMTvoriy4tiQI-2" target="Xtmy36vnMTvoriy4tiQI-5" edge="1">
          <mxGeometry relative="1" as="geometry" />
        </mxCell>
        <mxCell id="Xtmy36vnMTvoriy4tiQI-2" value="千目系统" style="rounded=0;whiteSpace=wrap;html=1;fillColor=#e51400;strokeColor=#B20000;fontColor=#ffffff;" parent="1" vertex="1">
          <mxGeometry x="310" y="439" width="119" height="41" as="geometry" />
        </mxCell>
        <mxCell id="Xtmy36vnMTvoriy4tiQI-3" value="三单礼外投接口" style="rounded=0;whiteSpace=wrap;html=1;" parent="1" vertex="1">
          <mxGeometry x="180" y="540" width="110" height="40" as="geometry" />
        </mxCell>
        <mxCell id="Xtmy36vnMTvoriy4tiQI-4" value="话费外投接口" style="rounded=0;whiteSpace=wrap;html=1;" parent="1" vertex="1">
          <mxGeometry x="315" y="540" width="110" height="40" as="geometry" />
        </mxCell>
        <mxCell id="Xtmy36vnMTvoriy4tiQI-5" value="省省卡外投接口" style="rounded=0;whiteSpace=wrap;html=1;" parent="1" vertex="1">
          <mxGeometry x="458" y="540" width="110" height="40" as="geometry" />
        </mxCell>
        <mxCell id="Xtmy36vnMTvoriy4tiQI-10" value="活动验资&lt;br&gt;数据聚合" style="text;html=1;strokeColor=none;fillColor=none;align=center;verticalAlign=middle;whiteSpace=wrap;rounded=0;" parent="1" vertex="1">
          <mxGeometry x="440" y="435" width="60" height="30" as="geometry" />
        </mxCell>
        <mxCell id="Xtmy36vnMTvoriy4tiQI-16" value="" style="edgeStyle=orthogonalEdgeStyle;rounded=0;orthogonalLoop=1;jettySize=auto;html=1;" parent="1" source="Xtmy36vnMTvoriy4tiQI-12" target="Xtmy36vnMTvoriy4tiQI-13" edge="1">
          <mxGeometry relative="1" as="geometry" />
        </mxCell>
        <mxCell id="Xtmy36vnMTvoriy4tiQI-12" value="参数处理，组装召回上下文" style="rounded=0;whiteSpace=wrap;html=1;" parent="1" vertex="1">
          <mxGeometry x="507" y="750" width="128" height="46" as="geometry" />
        </mxCell>
        <mxCell id="Xtmy36vnMTvoriy4tiQI-18" value="" style="edgeStyle=orthogonalEdgeStyle;rounded=0;orthogonalLoop=1;jettySize=auto;html=1;" parent="1" source="Xtmy36vnMTvoriy4tiQI-13" target="Xtmy36vnMTvoriy4tiQI-17" edge="1">
          <mxGeometry relative="1" as="geometry" />
        </mxCell>
        <mxCell id="Xtmy36vnMTvoriy4tiQI-13" value="获取投放计划" style="rounded=0;whiteSpace=wrap;html=1;" parent="1" vertex="1">
          <mxGeometry x="507" y="841" width="128" height="46" as="geometry" />
        </mxCell>
        <mxCell id="Xtmy36vnMTvoriy4tiQI-14" value="" style="endArrow=none;html=1;rounded=0;" parent="1" edge="1">
          <mxGeometry width="50" height="50" relative="1" as="geometry">
            <mxPoint x="450" y="1410" as="sourcePoint" />
            <mxPoint x="443" y="740" as="targetPoint" />
          </mxGeometry>
        </mxCell>
        <mxCell id="Xtmy36vnMTvoriy4tiQI-15" value="" style="endArrow=none;html=1;rounded=0;" parent="1" edge="1">
          <mxGeometry width="50" height="50" relative="1" as="geometry">
            <mxPoint x="254" y="1410" as="sourcePoint" />
            <mxPoint x="251" y="735" as="targetPoint" />
          </mxGeometry>
        </mxCell>
        <mxCell id="Xtmy36vnMTvoriy4tiQI-53" value="" style="edgeStyle=orthogonalEdgeStyle;rounded=0;orthogonalLoop=1;jettySize=auto;html=1;" parent="1" source="Xtmy36vnMTvoriy4tiQI-17" target="Xtmy36vnMTvoriy4tiQI-52" edge="1">
          <mxGeometry relative="1" as="geometry" />
        </mxCell>
        <mxCell id="Xtmy36vnMTvoriy4tiQI-17" value="策略匹配" style="rounded=0;whiteSpace=wrap;html=1;" parent="1" vertex="1">
          <mxGeometry x="507" y="939" width="128" height="46" as="geometry" />
        </mxCell>
        <mxCell id="Xtmy36vnMTvoriy4tiQI-19" value="" style="edgeStyle=orthogonalEdgeStyle;rounded=0;orthogonalLoop=1;jettySize=auto;html=1;" parent="1" source="Xtmy36vnMTvoriy4tiQI-20" target="Xtmy36vnMTvoriy4tiQI-22" edge="1">
          <mxGeometry relative="1" as="geometry" />
        </mxCell>
        <mxCell id="Xtmy36vnMTvoriy4tiQI-20" value="参数处理" style="rounded=0;whiteSpace=wrap;html=1;" parent="1" vertex="1">
          <mxGeometry x="54" y="841" width="128" height="46" as="geometry" />
        </mxCell>
        <mxCell id="Xtmy36vnMTvoriy4tiQI-21" value="" style="edgeStyle=orthogonalEdgeStyle;rounded=0;orthogonalLoop=1;jettySize=auto;html=1;" parent="1" source="Xtmy36vnMTvoriy4tiQI-22" target="Xtmy36vnMTvoriy4tiQI-23" edge="1">
          <mxGeometry relative="1" as="geometry" />
        </mxCell>
        <mxCell id="Xtmy36vnMTvoriy4tiQI-22" value="调用引擎" style="rounded=0;whiteSpace=wrap;html=1;" parent="1" vertex="1">
          <mxGeometry x="54" y="944" width="128" height="46" as="geometry" />
        </mxCell>
        <mxCell id="Xtmy36vnMTvoriy4tiQI-31" value="" style="edgeStyle=orthogonalEdgeStyle;rounded=0;orthogonalLoop=1;jettySize=auto;html=1;" parent="1" source="Xtmy36vnMTvoriy4tiQI-23" target="Xtmy36vnMTvoriy4tiQI-30" edge="1">
          <mxGeometry relative="1" as="geometry" />
        </mxCell>
        <mxCell id="Xtmy36vnMTvoriy4tiQI-23" value="物料处理，展示协议组装" style="rounded=0;whiteSpace=wrap;html=1;" parent="1" vertex="1">
          <mxGeometry x="54" y="1044" width="128" height="46" as="geometry" />
        </mxCell>
        <mxCell id="Xtmy36vnMTvoriy4tiQI-24" value="聚量引擎" style="rounded=0;whiteSpace=wrap;html=1;" parent="1" vertex="1">
          <mxGeometry x="290" y="944" width="120" height="60" as="geometry" />
        </mxCell>
        <mxCell id="Xtmy36vnMTvoriy4tiQI-25" value="" style="endArrow=classic;html=1;rounded=0;" parent="1" edge="1">
          <mxGeometry width="50" height="50" relative="1" as="geometry">
            <mxPoint x="226" y="975.5" as="sourcePoint" />
            <mxPoint x="278" y="975.5" as="targetPoint" />
          </mxGeometry>
        </mxCell>
        <mxCell id="Xtmy36vnMTvoriy4tiQI-26" value="" style="endArrow=classic;html=1;rounded=0;" parent="1" edge="1">
          <mxGeometry width="50" height="50" relative="1" as="geometry">
            <mxPoint x="422" y="977.5" as="sourcePoint" />
            <mxPoint x="474" y="977.5" as="targetPoint" />
          </mxGeometry>
        </mxCell>
        <mxCell id="Xtmy36vnMTvoriy4tiQI-29" value="" style="edgeStyle=orthogonalEdgeStyle;rounded=0;orthogonalLoop=1;jettySize=auto;html=1;" parent="1" source="Xtmy36vnMTvoriy4tiQI-28" target="Xtmy36vnMTvoriy4tiQI-20" edge="1">
          <mxGeometry relative="1" as="geometry" />
        </mxCell>
        <mxCell id="Xtmy36vnMTvoriy4tiQI-28" value="流量控制" style="rounded=0;whiteSpace=wrap;html=1;fillColor=#e51400;fontColor=#ffffff;strokeColor=#B20000;" parent="1" vertex="1">
          <mxGeometry x="54" y="750" width="128" height="46" as="geometry" />
        </mxCell>
        <mxCell id="Xtmy36vnMTvoriy4tiQI-33" value="" style="edgeStyle=orthogonalEdgeStyle;rounded=0;orthogonalLoop=1;jettySize=auto;html=1;" parent="1" source="Xtmy36vnMTvoriy4tiQI-30" target="Xtmy36vnMTvoriy4tiQI-32" edge="1">
          <mxGeometry relative="1" as="geometry" />
        </mxCell>
        <mxCell id="Xtmy36vnMTvoriy4tiQI-30" value="个性化扩展点" style="rounded=0;whiteSpace=wrap;html=1;" parent="1" vertex="1">
          <mxGeometry x="54" y="1130" width="128" height="46" as="geometry" />
        </mxCell>
        <mxCell id="Xtmy36vnMTvoriy4tiQI-35" value="" style="edgeStyle=orthogonalEdgeStyle;rounded=0;orthogonalLoop=1;jettySize=auto;html=1;" parent="1" source="Xtmy36vnMTvoriy4tiQI-32" target="Xtmy36vnMTvoriy4tiQI-34" edge="1">
          <mxGeometry relative="1" as="geometry" />
        </mxCell>
        <mxCell id="Xtmy36vnMTvoriy4tiQI-32" value="请求日志JDQ分发" style="rounded=0;whiteSpace=wrap;html=1;" parent="1" vertex="1">
          <mxGeometry x="54" y="1213" width="128" height="46" as="geometry" />
        </mxCell>
        <mxCell id="Xtmy36vnMTvoriy4tiQI-34" value="接口响应" style="rounded=0;whiteSpace=wrap;html=1;" parent="1" vertex="1">
          <mxGeometry x="54" y="1296" width="128" height="46" as="geometry" />
        </mxCell>
        <mxCell id="Xtmy36vnMTvoriy4tiQI-49" value="" style="edgeStyle=orthogonalEdgeStyle;rounded=0;orthogonalLoop=1;jettySize=auto;html=1;" parent="1" source="Xtmy36vnMTvoriy4tiQI-45" target="Xtmy36vnMTvoriy4tiQI-48" edge="1">
          <mxGeometry relative="1" as="geometry" />
        </mxCell>
        <mxCell id="Xtmy36vnMTvoriy4tiQI-45" value="计划配置素材处理" style="rounded=0;whiteSpace=wrap;html=1;" parent="1" vertex="1">
          <mxGeometry x="507" y="1158" width="128" height="46" as="geometry" />
        </mxCell>
        <mxCell id="Xtmy36vnMTvoriy4tiQI-51" value="" style="edgeStyle=orthogonalEdgeStyle;rounded=0;orthogonalLoop=1;jettySize=auto;html=1;" parent="1" source="Xtmy36vnMTvoriy4tiQI-48" target="Xtmy36vnMTvoriy4tiQI-50" edge="1">
          <mxGeometry relative="1" as="geometry" />
        </mxCell>
        <mxCell id="Xtmy36vnMTvoriy4tiQI-48" value="聚量召回协议数据转换" style="rounded=0;whiteSpace=wrap;html=1;" parent="1" vertex="1">
          <mxGeometry x="507" y="1259" width="128" height="46" as="geometry" />
        </mxCell>
        <mxCell id="Xtmy36vnMTvoriy4tiQI-50" value="召回响应" style="rounded=0;whiteSpace=wrap;html=1;" parent="1" vertex="1">
          <mxGeometry x="507" y="1355" width="128" height="46" as="geometry" />
        </mxCell>
        <mxCell id="Xtmy36vnMTvoriy4tiQI-54" value="" style="edgeStyle=orthogonalEdgeStyle;rounded=0;orthogonalLoop=1;jettySize=auto;html=1;" parent="1" source="Xtmy36vnMTvoriy4tiQI-52" target="Xtmy36vnMTvoriy4tiQI-45" edge="1">
          <mxGeometry relative="1" as="geometry" />
        </mxCell>
        <mxCell id="Xtmy36vnMTvoriy4tiQI-56" value="是" style="edgeLabel;html=1;align=center;verticalAlign=middle;resizable=0;points=[];" parent="Xtmy36vnMTvoriy4tiQI-54" vertex="1" connectable="0">
          <mxGeometry x="-0.2174" y="1" relative="1" as="geometry">
            <mxPoint x="-3" as="offset" />
          </mxGeometry>
        </mxCell>
        <mxCell id="Xtmy36vnMTvoriy4tiQI-55" value="否" style="edgeStyle=orthogonalEdgeStyle;rounded=0;orthogonalLoop=1;jettySize=auto;html=1;exitX=1;exitY=0.5;exitDx=0;exitDy=0;entryX=1;entryY=0.5;entryDx=0;entryDy=0;" parent="1" source="Xtmy36vnMTvoriy4tiQI-52" target="Xtmy36vnMTvoriy4tiQI-50" edge="1">
          <mxGeometry relative="1" as="geometry">
            <Array as="points">
              <mxPoint x="687" y="1077" />
              <mxPoint x="687" y="1378" />
            </Array>
          </mxGeometry>
        </mxCell>
        <mxCell id="Xtmy36vnMTvoriy4tiQI-52" value="是否命中投放计划" style="rhombus;whiteSpace=wrap;html=1;rounded=0;" parent="1" vertex="1">
          <mxGeometry x="510" y="1037" width="122" height="70" as="geometry" />
        </mxCell>
        <mxCell id="Xtmy36vnMTvoriy4tiQI-57" value="" style="endArrow=none;html=1;rounded=0;" parent="1" edge="1">
          <mxGeometry width="50" height="50" relative="1" as="geometry">
            <mxPoint x="737" y="1407" as="sourcePoint" />
            <mxPoint x="730" y="737" as="targetPoint" />
          </mxGeometry>
        </mxCell>
        <mxCell id="Xtmy36vnMTvoriy4tiQI-58" value="" style="endArrow=classic;html=1;rounded=0;dashed=1;" parent="1" edge="1">
          <mxGeometry width="50" height="50" relative="1" as="geometry">
            <mxPoint x="688" y="863.5" as="sourcePoint" />
            <mxPoint x="781" y="863.5" as="targetPoint" />
          </mxGeometry>
        </mxCell>
        <mxCell id="Xtmy36vnMTvoriy4tiQI-59" value="按场景&lt;br&gt;异步缓存" style="edgeLabel;html=1;align=center;verticalAlign=middle;resizable=0;points=[];" parent="Xtmy36vnMTvoriy4tiQI-58" vertex="1" connectable="0">
          <mxGeometry x="0.0769" y="1" relative="1" as="geometry">
            <mxPoint as="offset" />
          </mxGeometry>
        </mxCell>
        <mxCell id="Xtmy36vnMTvoriy4tiQI-62" value="" style="edgeStyle=orthogonalEdgeStyle;rounded=0;orthogonalLoop=1;jettySize=auto;html=1;" parent="1" source="Xtmy36vnMTvoriy4tiQI-60" target="Xtmy36vnMTvoriy4tiQI-61" edge="1">
          <mxGeometry relative="1" as="geometry" />
        </mxCell>
        <mxCell id="Xtmy36vnMTvoriy4tiQI-60" value="投放计划查询" style="rounded=0;whiteSpace=wrap;html=1;" parent="1" vertex="1">
          <mxGeometry x="809" y="755" width="128" height="46" as="geometry" />
        </mxCell>
        <mxCell id="Xtmy36vnMTvoriy4tiQI-61" value="MySQL" style="shape=cylinder3;whiteSpace=wrap;html=1;boundedLbl=1;backgroundOutline=1;size=15;fillColor=#e51400;fontColor=#ffffff;strokeColor=#B20000;" parent="1" vertex="1">
          <mxGeometry x="817" y="855" width="112" height="54" as="geometry" />
        </mxCell>
        <mxCell id="Xtmy36vnMTvoriy4tiQI-63" value="展示服务" style="text;html=1;strokeColor=none;fillColor=none;align=center;verticalAlign=middle;whiteSpace=wrap;rounded=0;" parent="1" vertex="1">
          <mxGeometry x="82" y="680" width="60" height="30" as="geometry" />
        </mxCell>
        <mxCell id="Xtmy36vnMTvoriy4tiQI-64" value="召回服务" style="text;html=1;strokeColor=none;fillColor=none;align=center;verticalAlign=middle;whiteSpace=wrap;rounded=0;" parent="1" vertex="1">
          <mxGeometry x="535" y="680" width="60" height="30" as="geometry" />
        </mxCell>
        <mxCell id="Xtmy36vnMTvoriy4tiQI-65" value="管理端服务" style="text;html=1;strokeColor=none;fillColor=none;align=center;verticalAlign=middle;whiteSpace=wrap;rounded=0;" parent="1" vertex="1">
          <mxGeometry x="832" y="684.5" width="82" height="21" as="geometry" />
        </mxCell>
        <mxCell id="Xtmy36vnMTvoriy4tiQI-71" value="引擎服务" style="text;html=1;strokeColor=none;fillColor=none;align=center;verticalAlign=middle;whiteSpace=wrap;rounded=0;" parent="1" vertex="1">
          <mxGeometry x="313" y="680" width="60" height="30" as="geometry" />
        </mxCell>
        <mxCell id="Xtmy36vnMTvoriy4tiQI-75" value="jutou-common" style="shape=module;align=left;spacingLeft=20;align=center;verticalAlign=top;whiteSpace=wrap;html=1;fillColor=#b1ddf0;strokeColor=#10739e;" parent="1" vertex="1">
          <mxGeometry x="217" y="1749" width="131" height="52" as="geometry" />
        </mxCell>
        <mxCell id="Xtmy36vnMTvoriy4tiQI-76" value="jutou-rpc" style="shape=module;align=left;spacingLeft=20;align=center;verticalAlign=top;whiteSpace=wrap;html=1;fillColor=#b1ddf0;strokeColor=#10739e;" parent="1" vertex="1">
          <mxGeometry x="395" y="1749" width="131" height="52" as="geometry" />
        </mxCell>
        <mxCell id="Xtmy36vnMTvoriy4tiQI-77" value="jutou-web" style="shape=module;align=left;spacingLeft=20;align=center;verticalAlign=top;whiteSpace=wrap;html=1;fillColor=#b0e3e6;strokeColor=#0e8088;" parent="1" vertex="1">
          <mxGeometry x="99" y="1629" width="131" height="52" as="geometry" />
        </mxCell>
        <mxCell id="Xtmy36vnMTvoriy4tiQI-78" value="juotu-recall" style="shape=module;align=left;spacingLeft=20;align=center;verticalAlign=top;whiteSpace=wrap;html=1;fillColor=#b0e3e6;strokeColor=#0e8088;" parent="1" vertex="1">
          <mxGeometry x="304.5" y="1627" width="131" height="52" as="geometry" />
        </mxCell>
        <mxCell id="Xtmy36vnMTvoriy4tiQI-79" value="juotu-platform" style="shape=module;align=left;spacingLeft=20;align=center;verticalAlign=top;whiteSpace=wrap;html=1;fillColor=#b0e3e6;strokeColor=#0e8088;" parent="1" vertex="1">
          <mxGeometry x="510" y="1629" width="131" height="52" as="geometry" />
        </mxCell>
      </root>
    </mxGraphModel>
  </diagram>
</mxfile>
